<?xml version="1.0" encoding="UTF-8" standalone="no"?>
<svg
   xmlns:dc="http://purl.org/dc/elements/1.1/"
   xmlns:cc="http://creativecommons.org/ns#"
   xmlns:rdf="http://www.w3.org/1999/02/22-rdf-syntax-ns#"
   xmlns:svg="http://www.w3.org/2000/svg"
   xmlns="http://www.w3.org/2000/svg"
   xmlns:sodipodi="http://sodipodi.sourceforge.net/DTD/sodipodi-0.dtd"
   xmlns:inkscape="http://www.inkscape.org/namespaces/inkscape"
   width="131.10672mm"
   height="161.06926mm"
   viewBox="0 0 131.10672 161.06926"
   version="1.1"
   id="svg8"
   inkscape:version="1.0.1 (3bc2e813f5, 2020-09-07)"
   sodipodi:docname="schield.svg">
  <defs
     id="defs2" />
  <sodipodi:namedview
     id="base"
     pagecolor="#ffffff"
     bordercolor="#666666"
     borderopacity="1.0"
     inkscape:pageopacity="0.0"
     inkscape:pageshadow="2"
     inkscape:zoom="0.98994949"
     inkscape:cx="295.67372"
     inkscape:cy="227.45031"
     inkscape:document-units="mm"
     inkscape:current-layer="layer1"
     inkscape:document-rotation="0"
     showgrid="false"
     inkscape:window-width="1609"
     inkscape:window-height="1040"
     inkscape:window-x="234"
     inkscape:window-y="0"
     inkscape:window-maximized="0"
     fit-margin-top="0"
     fit-margin-left="0"
     fit-margin-right="0"
     fit-margin-bottom="0" />
  <metadata
     id="metadata5">
    <rdf:RDF>
      <cc:Work
         rdf:about="">
        <dc:format>image/svg+xml</dc:format>
        <dc:type
           rdf:resource="http://purl.org/dc/dcmitype/StillImage" />
        <dc:title></dc:title>
      </cc:Work>
    </rdf:RDF>
  </metadata>
  <g
     inkscape:label="Слой 1"
     inkscape:groupmode="layer"
     id="layer1"
     transform="translate(-27.602995,-45.223982)">
    <path
       style="fill:#ffffff;stroke:#000000;stroke-width:0.264583px;stroke-linecap:butt;stroke-linejoin:miter;stroke-opacity:1"
       d="m 39.629648,78.08451 -4.88461,24.54699 7.750817,32.87415 43.297662,61.47199 14.967093,-0.80181 14.43256,-11.22532 24.32153,-32.07234 9.6217,-40.09043 3.20723,-37.15046 -57.195679,-20.579758 z"
       id="path27"
       sodipodi:nodetypes="ccccccccccc" />
    <path
       id="path24"
       style="fill:#000000;stroke-width:0.191508"
       d="m 93.164366,45.223982 -1.20096,1.018026 C 84.47642,52.5861 74.767776,57.56114 62.739868,61.216803 c -9.86296,2.997668 -21.047393,5.020945 -31.455961,5.690608 l -3.680912,0.23668 0.130223,6.044589 c 0.522401,24.23394 3.023632,42.68616 8.248591,60.84952 5.535002,19.24114 13.811348,35.27228 25.133869,48.68437 2.472769,2.9291 8.212373,8.65922 10.974522,10.95643 6.505922,5.41083 13.448527,9.7441 18.995223,11.85613 1.086131,0.41357 1.999552,0.75509 2.029849,0.75809 0.0303,0.003 0.805752,-0.28494 1.723411,-0.64079 8.274127,-3.20849 17.070447,-9.29159 25.229467,-17.447 14.92774,-14.92116 25.58499,-35.12414 31.9748,-60.61593 4.07547,-16.25885 6.05516,-32.74543 6.53345,-54.4096 l 0.13332,-6.054414 -2.37505,-0.135393 c -12.41577,-0.70943 -25.36488,-3.19328 -36.48149,-6.997504 -9.71211,-3.323587 -17.70939,-7.553018 -24.307048,-12.854514 z m -0.103871,15.167549 0.04806,32.833139 0.04858,32.83262 h 24.150975 24.15047 l -0.12764,0.68006 c -0.0702,0.37406 -0.59998,2.33465 -1.17771,4.35684 -7.03699,24.63082 -19.41911,43.48946 -36.081,54.95272 -2.3785,1.63638 -6.168801,3.78404 -8.330759,4.72064 -0.94796,0.41068 -1.917401,0.80448 -2.154391,0.87488 l -0.430983,0.12816 V 158.91368 126.05729 H 68.946207 44.736316 l -0.220144,-1.00511 c -1.649629,-7.52907 -2.290019,-11.00951 -3.055109,-16.61345 -1.20264,-8.80877 -2.055646,-21.36614 -1.893425,-27.86445 l 0.06201,-2.48977 1.148768,-0.047 c 1.610169,-0.0663 6.715932,-0.5923 9.001,-0.92708 17.71926,-2.59603 31.999851,-7.933029 41.940075,-15.674494 z" />
  </g>
</svg>
